static_01
version=1
nRows=9
nColumns=46
inDegrees=yes
endheader
time	ground_force3_vx	ground_force3_vy	ground_force3_vz	ground_force3_px	ground_force3_py	ground_force3_pz	ground_torque3_x	ground_torque3_y	ground_torque3_z	ground_force5_vx	ground_force5_vy	ground_force5_vz	ground_force5_px	ground_force5_py	ground_force5_pz	ground_torque5_x	ground_torque5_y	ground_torque5_z	ground_force4_vx	ground_force4_vy	ground_force4_vz	ground_force4_px	ground_force4_py	ground_force4_pz	ground_torque4_x	ground_torque4_y	ground_torque4_z	ground_force1_vx	ground_force1_vy	ground_force1_vz	ground_force1_px	ground_force1_py	ground_force1_pz	ground_torque1_x	ground_torque1_y	ground_torque1_z	ground_force2_vx	ground_force2_vy	ground_force2_vz	ground_force2_px	ground_force2_py	ground_force2_pz	ground_torque2_x	ground_torque2_y	ground_torque2_z
0.802000	-0.000000	-0.000000	0.000000	0.200000	0.000000	-0.300000	0.000000	0.000000	-0.000000	1.028136	345.567169	20.649788	0.230061	0.000000	-1.320018	0.000030	0.026804	0.000004	-4.575664	319.373871	-20.804054	0.237037	0.000000	-1.051017	0.000026	-0.144124	0.000005	-0.000000	-0.000000	0.000000	0.200000	0.000000	0.904000	0.000000	0.000000	-0.000000	-0.000000	-0.000000	0.000000	0.400000	0.000000	0.302000	0.000000	0.000000	-0.000000	
0.803000	-0.000000	-0.000000	0.000000	0.200000	0.000000	-0.300000	0.000000	0.000000	-0.000000	0.867434	346.842407	20.649109	0.229747	0.000000	-1.320771	0.000048	-0.106198	0.000004	-4.736705	321.294922	-21.282598	0.237619	0.000000	-1.047506	-0.000009	0.099308	0.000006	-0.000000	-0.000000	0.000000	0.200000	0.000000	0.904000	0.000000	0.000000	-0.000000	-0.000000	-0.000000	0.000000	0.400000	0.000000	0.302000	0.000000	0.000000	-0.000000	
0.804000	-0.000000	-0.000000	0.000000	0.200000	0.000000	-0.300000	0.000000	0.000000	-0.000000	0.867943	344.292267	20.489254	0.230348	0.000000	-1.320129	-0.000011	-0.081095	0.000004	-4.087902	322.899414	-21.446194	0.237243	0.000000	-1.046557	0.000014	-0.032240	0.000002	-0.000000	-0.000000	0.000000	0.200000	0.000000	0.904000	0.000000	0.000000	-0.000000	-0.000000	-0.000000	0.000000	0.400000	0.000000	0.302000	0.000000	0.000000	-0.000000	
0.805000	-0.000000	-0.000000	0.000000	0.200000	0.000000	-0.300000	0.000000	0.000000	-0.000000	0.706730	344.611816	20.488575	0.230395	0.000000	-1.320114	0.000048	-0.156550	0.000002	-5.058792	321.611145	-22.249882	0.237632	0.000000	-1.047722	0.000027	0.209347	0.000004	-0.000000	-0.000000	0.000000	0.200000	0.000000	0.904000	0.000000	0.000000	-0.000000	-0.000000	-0.000000	0.000000	0.400000	0.000000	0.302000	0.000000	0.000000	-0.000000	
0.806000	-0.000000	-0.000000	0.000000	0.200000	0.000000	-0.300000	0.000000	0.000000	-0.000000	0.545517	344.933044	20.329056	0.230632	0.000000	-1.320135	0.000024	-0.018963	0.000003	-3.601686	320.651764	-21.605705	0.237571	0.000000	-1.048741	0.000002	0.009105	0.000002	-0.000000	-0.000000	0.000000	0.200000	0.000000	0.904000	0.000000	0.000000	-0.000000	-0.000000	-0.000000	0.000000	0.400000	0.000000	0.302000	0.000000	0.000000	-0.000000	
0.807000	-0.000000	-0.000000	0.000000	0.200000	0.000000	-0.300000	0.000000	0.000000	-0.000000	1.510756	344.929749	20.007650	0.230537	0.000000	-1.318066	0.000018	0.237413	0.000003	-4.572574	319.694122	-21.285660	0.237457	0.000000	-1.048535	0.000031	0.058096	0.000005	-0.000000	-0.000000	0.000000	0.200000	0.000000	0.904000	0.000000	0.000000	-0.000000	-0.000000	-0.000000	0.000000	0.400000	0.000000	0.302000	0.000000	0.000000	-0.000000	
0.808000	-0.000000	-0.000000	0.000000	0.200000	0.000000	-0.300000	0.000000	0.000000	-0.000000	1.351072	345.568512	20.810999	0.230470	0.000000	-1.319169	0.000051	0.003000	0.000003	-4.736705	323.860779	-21.602646	0.236206	0.000000	-1.048097	0.000015	0.160791	-0.000000	-0.000000	-0.000000	0.000000	0.200000	0.000000	0.904000	0.000000	0.000000	-0.000000	-0.000000	-0.000000	0.000000	0.400000	0.000000	0.302000	0.000000	0.000000	-0.000000	
0.809000	-0.000000	-0.000000	0.000000	0.200000	0.000000	-0.300000	0.000000	0.000000	-0.000000	1.028646	345.886078	20.650465	0.230893	0.000000	-1.320466	0.000024	0.021987	0.000008	-5.058792	322.579865	-21.446194	0.236588	0.000000	-1.046981	-0.000008	0.095293	0.000005	-0.000000	-0.000000	0.000000	0.200000	0.000000	0.904000	0.000000	0.000000	-0.000000	-0.000000	-0.000000	0.000000	0.400000	0.000000	0.302000	0.000000	0.000000	-0.000000	
0.810000	-0.000000	-0.000000	0.000000	0.200000	0.000000	-0.300000	0.000000	0.000000	-0.000000	0.867434	345.249939	20.168184	0.230542	0.000000	-1.319717	0.000017	0.027924	0.000004	-5.218289	321.935364	-21.605705	0.236793	0.000000	-1.048161	0.000007	0.289690	0.000001	-0.000000	-0.000000	0.000000	0.200000	0.000000	0.904000	0.000000	0.000000	-0.000000	-0.000000	-0.000000	0.000000	0.400000	0.000000	0.302000	0.000000	0.000000	-0.000000	
